<?xml version="1.0" encoding="utf-8"?>
<!-- Svg Vector Icons : http://www.onlinewebfonts.com/icon -->
<!DOCTYPE svg PUBLIC "-//W3C//DTD SVG 1.1//EN" "http://www.w3.org/Graphics/SVG/1.1/DTD/svg11.dtd">
<svg version="1.1" xmlns="http://www.w3.org/2000/svg" xmlns:xlink="http://www.w3.org/1999/xlink" x="0px" y="0px" viewBox="0 0 256 256" enable-background="new 0 0 256 256" xml:space="preserve">
<metadata> Svg Vector Icons : http://www.onlinewebfonts.com/icon </metadata>
<g><g><g id="XMLID_269_"><path fill="#ae891a"  id="XMLID_271_" d="M161.6,88c-14.4,0-27,8-33.6,19.7C121.4,96,108.9,88,94.4,88c-21.3,0-38.5,17.2-38.5,38.5c0,44.1,72.1,88.9,72.1,88.9s72.1-44.5,72.1-88.9C200.1,105.2,182.8,88,161.6,88z"/><path fill="#ae891a"  id="XMLID_270_" d="M246,124.2c0-12.4-8.9-22.7-20.7-24.9v-0.5c0-5.4-3.6-9.9-8.6-11.3c-7.5-27-32.3-46.9-61.7-46.9h-54c-29.4,0-54.2,19.9-61.7,46.9c-4.9,1.4-8.6,5.9-8.6,11.3v0.5C18.9,101.5,10,111.8,10,124.2c0,12.4,8.9,22.7,20.7,24.9v0.5c0,6.5,5.3,11.8,11.8,11.8c6.5,0,11.8-5.3,11.8-11.8V98.9c0-1.3-0.3-2.6-0.7-3.9c4.5-22,24.1-38.7,47.4-38.7h54c23.4,0,42.9,16.6,47.4,38.7c-0.4,1.2-0.7,2.5-0.7,3.9v50.6c0,6.5,5.3,11.8,11.8,11.8c6.5,0,11.8-5.3,11.8-11.8V149C237.1,146.9,246,136.6,246,124.2z"/></g><g></g><g></g><g></g><g></g><g></g><g></g><g></g><g></g><g></g><g></g><g></g><g></g><g></g><g></g><g></g></g></g>
</svg>